<svg xmlns="http://www.w3.org/2000/svg" xmlns:xlink="http://www.w3.org/1999/xlink" width="1920" height="1080" viewBox="0 0 1920 1080">
  <defs>
    <clipPath id="clip-path">
      <rect width="277" height="273" fill="none"/>
    </clipPath>
    <clipPath id="clip-Artboard_2">
      <rect width="1920" height="1080"/>
    </clipPath>
  </defs>
  <g id="Artboard_2" data-name="Artboard – 2" clip-path="url(#clip-Artboard_2)">
    <rect width="1920" height="1080" fill="#fff"/>
    <path id="Path_7" data-name="Path 7" d="M180.474,1069.331c-46.368-6.918-82.429-29.115-109.863-55.283C19.042,964.858-1.45,901.719-1.45,901.719S-49.13,740.063-131.065,774.1-385.665,672-385.665,672h615.67v397.334Z" transform="translate(1689.995 -671.997)" fill="#f7f7f7"/>
    <path id="Path_1" data-name="Path 1" d="M-314.332,672c66.778,5.421,118.711,22.813,158.22,43.318C-81.845,753.858-52.333,803.33-52.333,803.33S16.333,930,134.333,903.33,501,983.33,501,983.33H-385.665V672Z" transform="translate(385.665 96.67)" fill="#f7f7f7"/>
    <g id="Repeat_Grid_4" data-name="Repeat Grid 4" transform="translate(0 124)" clip-path="url(#clip-path)">
      <g transform="translate(-15 -821)">
        <circle id="Ellipse_2" data-name="Ellipse 2" cx="19.5" cy="19.5" r="19.5" transform="translate(15 821)" fill="#f7f7f7"/>
      </g>
      <g transform="translate(44 -821)">
        <circle id="Ellipse_2-2" data-name="Ellipse 2" cx="19.5" cy="19.5" r="19.5" transform="translate(15 821)" fill="#f7f7f7"/>
      </g>
      <g transform="translate(103 -821)">
        <circle id="Ellipse_2-3" data-name="Ellipse 2" cx="19.5" cy="19.5" r="19.5" transform="translate(15 821)" fill="#f7f7f7"/>
      </g>
      <g transform="translate(162 -821)">
        <circle id="Ellipse_2-4" data-name="Ellipse 2" cx="19.5" cy="19.5" r="19.5" transform="translate(15 821)" fill="#f7f7f7"/>
      </g>
      <g transform="translate(221 -821)">
        <circle id="Ellipse_2-5" data-name="Ellipse 2" cx="19.5" cy="19.5" r="19.5" transform="translate(15 821)" fill="#f7f7f7"/>
      </g>
      <g transform="translate(-15 -766)">
        <circle id="Ellipse_2-6" data-name="Ellipse 2" cx="19.5" cy="19.5" r="19.5" transform="translate(15 821)" fill="#f7f7f7"/>
      </g>
      <g transform="translate(44 -766)">
        <circle id="Ellipse_2-7" data-name="Ellipse 2" cx="19.5" cy="19.5" r="19.5" transform="translate(15 821)" fill="#f7f7f7"/>
      </g>
      <g transform="translate(103 -766)">
        <circle id="Ellipse_2-8" data-name="Ellipse 2" cx="19.5" cy="19.5" r="19.5" transform="translate(15 821)" fill="#f7f7f7"/>
      </g>
      <g transform="translate(162 -766)">
        <circle id="Ellipse_2-9" data-name="Ellipse 2" cx="19.5" cy="19.5" r="19.5" transform="translate(15 821)" fill="#f7f7f7"/>
      </g>
      <g transform="translate(221 -766)">
        <circle id="Ellipse_2-10" data-name="Ellipse 2" cx="19.5" cy="19.5" r="19.5" transform="translate(15 821)" fill="#f7f7f7"/>
      </g>
      <g transform="translate(-15 -711)">
        <circle id="Ellipse_2-11" data-name="Ellipse 2" cx="19.5" cy="19.5" r="19.5" transform="translate(15 821)" fill="#f7f7f7"/>
      </g>
      <g transform="translate(44 -711)">
        <circle id="Ellipse_2-12" data-name="Ellipse 2" cx="19.5" cy="19.5" r="19.5" transform="translate(15 821)" fill="#f7f7f7"/>
      </g>
      <g transform="translate(103 -711)">
        <circle id="Ellipse_2-13" data-name="Ellipse 2" cx="19.5" cy="19.5" r="19.5" transform="translate(15 821)" fill="#f7f7f7"/>
      </g>
      <g transform="translate(162 -711)">
        <circle id="Ellipse_2-14" data-name="Ellipse 2" cx="19.5" cy="19.5" r="19.5" transform="translate(15 821)" fill="#f7f7f7"/>
      </g>
      <g transform="translate(221 -711)">
        <circle id="Ellipse_2-15" data-name="Ellipse 2" cx="19.5" cy="19.5" r="19.5" transform="translate(15 821)" fill="#f7f7f7"/>
      </g>
      <g transform="translate(-15 -656)">
        <circle id="Ellipse_2-16" data-name="Ellipse 2" cx="19.5" cy="19.5" r="19.5" transform="translate(15 821)" fill="#f7f7f7"/>
      </g>
      <g transform="translate(44 -656)">
        <circle id="Ellipse_2-17" data-name="Ellipse 2" cx="19.5" cy="19.5" r="19.5" transform="translate(15 821)" fill="#f7f7f7"/>
      </g>
      <g transform="translate(103 -656)">
        <circle id="Ellipse_2-18" data-name="Ellipse 2" cx="19.5" cy="19.5" r="19.5" transform="translate(15 821)" fill="#f7f7f7"/>
      </g>
      <g transform="translate(162 -656)">
        <circle id="Ellipse_2-19" data-name="Ellipse 2" cx="19.5" cy="19.5" r="19.5" transform="translate(15 821)" fill="#f7f7f7"/>
      </g>
      <g transform="translate(221 -656)">
        <circle id="Ellipse_2-20" data-name="Ellipse 2" cx="19.5" cy="19.5" r="19.5" transform="translate(15 821)" fill="#f7f7f7"/>
      </g>
      <g transform="translate(-15 -601)">
        <circle id="Ellipse_2-21" data-name="Ellipse 2" cx="19.5" cy="19.5" r="19.5" transform="translate(15 821)" fill="#f7f7f7"/>
      </g>
      <g transform="translate(44 -601)">
        <circle id="Ellipse_2-22" data-name="Ellipse 2" cx="19.5" cy="19.5" r="19.5" transform="translate(15 821)" fill="#f7f7f7"/>
      </g>
      <g transform="translate(103 -601)">
        <circle id="Ellipse_2-23" data-name="Ellipse 2" cx="19.5" cy="19.5" r="19.5" transform="translate(15 821)" fill="#f7f7f7"/>
      </g>
      <g transform="translate(162 -601)">
        <circle id="Ellipse_2-24" data-name="Ellipse 2" cx="19.5" cy="19.5" r="19.5" transform="translate(15 821)" fill="#f7f7f7"/>
      </g>
      <g transform="translate(221 -601)">
        <circle id="Ellipse_2-25" data-name="Ellipse 2" cx="19.5" cy="19.5" r="19.5" transform="translate(15 821)" fill="#f7f7f7"/>
      </g>
    </g>
    <path id="Path_21" data-name="Path 21" d="M1643.327,130" transform="translate(-1642.504 139)" fill="none" stroke="#707070" stroke-width="1"/>
  </g>
</svg>
