<?xml version="1.0" standalone="no"?>
<!DOCTYPE svg PUBLIC "-//W3C//DTD SVG 20010904//EN"
 "http://www.w3.org/TR/2001/REC-SVG-20010904/DTD/svg10.dtd">
<svg version="1.0" xmlns="http://www.w3.org/2000/svg"
 width="88.000000pt" height="88.000000pt" viewBox="0 0 88.000000 88.000000"
 preserveAspectRatio="xMidYMid meet">

<g transform="translate(0.000000,88.000000) scale(0.100000,-0.100000)"
fill="#000000" stroke="none">
<path d="M180 785 l0 -95 -43 0 c-83 0 -82 6 -85 -288 l-3 -259 -24 -11 c-21
-10 -25 -19 -25 -52 0 -27 7 -47 20 -60 19 -19 33 -20 420 -20 387 0 401 1
420 20 13 13 20 33 20 60 0 33 -4 42 -25 52 l-25 11 0 254 c0 240 -1 254 -20
273 -14 14 -33 20 -65 20 l-45 0 0 95 0 95 -260 0 -260 0 0 -95z m498 38 l3
-23 -235 0 -236 0 0 25 0 25 233 -2 232 -3 3 -22z m-3 -343 l0 -285 -232 -3
-233 -2 0 290 0 290 233 -2 232 -3 0 -285z m-495 165 c0 -10 -11 -15 -35 -15
l-35 0 2 -232 3 -233 325 0 325 0 3 232 2 232 -32 3 c-17 2 -33 9 -36 16 -3
10 8 12 44 10 l49 -3 3 -257 2 -258 -360 0 -360 0 0 244 c0 134 3 251 6 260 8
22 94 23 94 1z m-2 -248 c2 -202 2 -207 -18 -207 -19 0 -20 6 -20 211 0 195 1
210 18 207 15 -3 17 -22 20 -211z m562 3 c0 -203 -1 -210 -20 -210 -19 0 -20
7 -20 203 0 112 3 207 7 210 3 4 12 7 20 7 10 0 13 -42 13 -210z m-432 -310
c11 -18 23 -20 132 -20 109 0 121 2 132 20 12 18 24 20 146 20 l133 0 -3 -37
-3 -38 -394 -3 c-282 -1 -398 1 -407 9 -8 6 -14 24 -14 40 l0 29 133 0 c121 0
133 -2 145 -20z m189 13 c-31 -2 -83 -2 -115 0 -31 2 -5 3 58 3 63 0 89 -1 57
-3z"/>
<path d="M237 834 c-8 -8 1 -24 14 -24 5 0 9 7 9 15 0 15 -12 20 -23 9z"/>
<path d="M290 825 c0 -9 5 -15 11 -13 6 2 11 8 11 13 0 5 -5 11 -11 13 -6 2
-11 -4 -11 -13z"/>
<path d="M347 834 c-8 -8 1 -24 14 -24 5 0 9 7 9 15 0 15 -12 20 -23 9z"/>
<path d="M260 580 l0 -150 181 0 c140 0 180 3 177 13 -3 6 -17 13 -31 15 -26
3 -27 5 -27 73 0 39 -4 69 -10 69 -6 0 -10 -30 -10 -70 0 -63 -2 -70 -19 -70
-16 0 -20 8 -23 37 -4 52 -28 56 -28 4 0 -34 -3 -41 -20 -41 -16 0 -19 8 -22
57 -4 81 -28 85 -28 4 0 -54 -2 -61 -19 -61 -12 0 -21 8 -23 22 -5 32 -28 35
-28 4 0 -19 -5 -26 -20 -26 -39 0 -23 43 40 105 l60 59 31 -23 31 -23 49 48
c41 40 51 46 59 34 14 -22 32 1 28 36 -2 23 -9 30 -31 32 -16 2 -36 1 -45 -3
-16 -6 -16 -7 0 -19 16 -12 14 -16 -22 -51 l-40 -39 -23 22 c-13 12 -27 22
-32 22 -5 0 -35 -26 -67 -57 l-58 -57 0 92 c0 75 -3 92 -15 92 -13 0 -15 -23
-15 -150z"/>
<path d="M262 359 c2 -6 8 -10 13 -10 5 0 11 4 13 10 2 6 -4 11 -13 11 -9 0
-15 -5 -13 -11z"/>
<path d="M320 355 c0 -13 21 -15 147 -13 106 2 147 6 151 16 3 9 -31 12 -147
12 -129 0 -151 -2 -151 -15z"/>
<path d="M266 313 c-11 -11 -6 -23 9 -23 8 0 15 4 15 9 0 13 -16 22 -24 14z"/>
<path d="M320 305 c0 -13 22 -15 151 -15 116 0 150 3 147 13 -4 9 -45 13 -151
15 -126 2 -147 0 -147 -13z"/>
<path d="M262 249 c2 -6 8 -10 13 -10 5 0 11 4 13 10 2 6 -4 11 -13 11 -9 0
-15 -5 -13 -11z"/>
<path d="M320 245 c0 -13 21 -15 147 -13 106 2 147 6 151 16 3 9 -31 12 -147
12 -129 0 -151 -2 -151 -15z"/>
</g>
</svg>
