<?xml version="1.0" standalone="no"?>
<!DOCTYPE svg PUBLIC "-//W3C//DTD SVG 20010904//EN"
 "http://www.w3.org/TR/2001/REC-SVG-20010904/DTD/svg10.dtd">
<svg version="1.0" xmlns="http://www.w3.org/2000/svg"
 width="84.000000pt" height="84.000000pt" viewBox="0 0 84.000000 84.000000"
 preserveAspectRatio="xMidYMid meet">

<g transform="translate(0.000000,84.000000) scale(0.100000,-0.100000)"
fill="#000000" stroke="none">
<path d="M315 825 c-16 -8 -37 -20 -46 -27 -29 -23 -69 -90 -69 -114 0 -17 -9
-25 -35 -34 -44 -15 -90 -68 -99 -114 -9 -50 22 -119 66 -146 27 -16 50 -20
126 -20 85 0 92 -2 92 -20 0 -18 -8 -20 -122 -22 l-123 -3 0 -34 c0 -19 6 -36
13 -38 7 -3 12 5 12 21 l0 26 125 0 125 0 0 36 c0 61 25 35 28 -29 4 -76 22
-73 22 3 0 47 3 60 15 60 10 0 15 -11 15 -35 l0 -35 125 0 125 0 0 -26 c0 -16
5 -24 13 -22 6 3 12 20 12 39 l0 34 -122 3 c-115 2 -123 4 -123 22 0 19 7 20
104 20 97 0 107 2 135 25 46 39 57 84 33 139 -11 24 -28 47 -39 50 -10 3 -27
25 -38 48 -16 35 -28 46 -62 58 -29 9 -46 23 -53 41 -36 86 -168 135 -255 94z
m154 -30 c35 -18 79 -69 87 -101 5 -18 13 -24 33 -24 37 0 68 -25 76 -60 4
-19 17 -36 34 -45 33 -17 56 -65 47 -100 -8 -33 -40 -61 -78 -69 -57 -11 -461
-6 -498 7 -50 17 -83 71 -76 122 6 47 61 105 100 105 20 0 25 6 31 38 9 51 46
105 86 125 42 21 121 22 158 2z"/>
<path d="M7 233 c-4 -3 -7 -46 -7 -95 l0 -88 40 0 c40 0 53 -13 25 -24 -35
-13 -11 -26 50 -26 60 0 80 9 55 25 -21 13 -9 25 25 25 l35 0 0 95 0 95 -108
0 c-60 0 -112 -3 -115 -7z m203 -88 l0 -65 -90 0 -90 0 0 65 0 65 90 0 90 0 0
-65z m-80 -105 c0 -5 -7 -10 -15 -10 -8 0 -15 5 -15 10 0 6 7 10 15 10 8 0 15
-4 15 -10z"/>
<path d="M304 227 c-3 -8 -4 -49 -2 -93 l3 -79 38 -3 c38 -3 49 -15 21 -26
-31 -12 -1 -26 56 -26 57 0 87 14 56 26 -28 11 -17 23 22 26 l37 3 0 90 0 90
-113 3 c-88 2 -114 0 -118 -11z m206 -82 l0 -65 -90 0 -90 0 0 65 0 65 90 0
90 0 0 -65z m-80 -105 c0 -5 -4 -10 -10 -10 -5 0 -10 5 -10 10 0 6 5 10 10 10
6 0 10 -4 10 -10z"/>
<path d="M604 227 c-3 -8 -4 -49 -2 -93 l3 -79 38 -3 c36 -3 47 -14 27 -27
-25 -16 -5 -25 55 -25 61 0 85 13 50 26 -28 11 -15 24 25 24 l41 0 -3 92 -3
93 -113 3 c-88 2 -114 0 -118 -11z m206 -82 l0 -65 -90 0 -90 0 0 65 0 65 90
0 90 0 0 -65z m-80 -105 c0 -5 -4 -10 -10 -10 -5 0 -10 5 -10 10 0 6 5 10 10
10 6 0 10 -4 10 -10z"/>
</g>
</svg>
