<?xml version="1.0" standalone="no"?>
<!DOCTYPE svg PUBLIC "-//W3C//DTD SVG 20010904//EN"
 "http://www.w3.org/TR/2001/REC-SVG-20010904/DTD/svg10.dtd">
<svg version="1.0" xmlns="http://www.w3.org/2000/svg"
 width="93.000000pt" height="93.000000pt" viewBox="0 0 93.000000 93.000000"
 preserveAspectRatio="xMidYMid meet">

<g transform="translate(0.000000,93.000000) scale(0.100000,-0.100000)"
fill="#000000" stroke="none">
<path d="M480 900 l0 -30 -240 0 -240 0 0 -405 0 -405 240 0 240 0 0 -30 c0
-20 5 -30 15 -30 10 0 15 10 15 30 l0 30 210 0 210 0 0 405 0 405 -210 0 -210
0 0 30 c0 20 -5 30 -15 30 -10 0 -15 -10 -15 -30z m0 -100 l0 -40 -225 0 -225
0 0 40 0 40 225 0 225 0 0 -40z m420 0 l0 -40 -195 0 -195 0 0 40 0 40 195 0
195 0 0 -40z m-422 -392 l-3 -323 -220 0 -220 0 -3 323 -2 322 225 0 225 0 -2
-322z m420 0 l-3 -323 -190 0 -190 0 -3 323 -2 322 195 0 195 0 -2 -322z"/>
<path d="M72 799 c2 -6 8 -10 13 -10 5 0 11 4 13 10 2 6 -4 11 -13 11 -9 0
-15 -5 -13 -11z"/>
<path d="M150 801 c0 -6 5 -13 10 -16 6 -3 10 1 10 9 0 9 -4 16 -10 16 -5 0
-10 -4 -10 -9z"/>
<path d="M222 799 c2 -6 8 -10 13 -10 5 0 11 4 13 10 2 6 -4 11 -13 11 -9 0
-15 -5 -13 -11z"/>
<path d="M72 603 l3 -78 180 0 180 0 0 75 0 75 -183 3 -183 2 3 -77z m338 -3
l0 -50 -155 0 -155 0 0 50 0 50 155 0 155 0 0 -50z"/>
<path d="M84 455 c-24 -36 -6 -75 34 -75 35 0 52 16 52 52 0 49 -59 65 -86 23z
m56 -25 c0 -21 -24 -28 -35 -10 -8 14 3 30 21 30 8 0 14 -9 14 -20z"/>
<path d="M216 458 c-21 -29 -20 -41 2 -61 27 -24 59 -21 78 8 15 23 15 27 0
50 -21 32 -59 33 -80 3z m54 -28 c0 -11 -6 -20 -13 -20 -19 0 -27 10 -20 26 8
21 33 17 33 -6z"/>
<path d="M353 468 c-19 -25 -21 -46 -7 -67 24 -34 73 -26 87 13 16 43 -53 89
-80 54z m53 -29 c9 -15 -11 -33 -30 -26 -9 4 -13 13 -10 22 7 17 30 20 40 4z"/>
<path d="M77 344 c-14 -14 6 -24 49 -24 32 0 44 4 44 15 0 11 -11 15 -43 15
-24 0 -47 -3 -50 -6z"/>
<path d="M205 340 c-3 -5 0 -13 8 -16 23 -8 92 0 92 11 0 14 -92 19 -100 5z"/>
<path d="M340 335 c0 -13 9 -16 48 -13 26 2 47 8 47 13 0 6 -21 11 -47 13 -39
3 -48 0 -48 -13z"/>
<path d="M77 284 c-14 -14 6 -24 49 -24 32 0 44 4 44 15 0 11 -11 15 -43 15
-24 0 -47 -3 -50 -6z"/>
<path d="M205 280 c-3 -5 0 -13 8 -16 23 -8 92 0 92 11 0 14 -92 19 -100 5z"/>
<path d="M340 275 c0 -13 9 -16 48 -13 26 2 47 8 47 13 0 6 -21 11 -47 13 -39
3 -48 0 -48 -13z"/>
<path d="M74 206 c-3 -8 -4 -27 -2 -43 l3 -28 180 0 180 0 0 40 0 40 -178 3
c-147 2 -178 0 -183 -12z m336 -31 c0 -13 -24 -15 -155 -15 -131 0 -155 2
-155 15 0 13 24 15 155 15 131 0 155 -2 155 -15z"/>
<path d="M570 645 l-34 -35 36 -36 c44 -45 75 -38 32 7 l-28 29 27 28 c24 25
27 42 7 42 -3 0 -21 -16 -40 -35z"/>
<path d="M696 621 c-20 -32 -36 -64 -36 -70 0 -25 22 -8 56 46 46 71 50 83 31
83 -9 0 -32 -26 -51 -59z"/>
<path d="M790 668 c0 -6 10 -22 22 -35 l21 -23 -21 -23 c-24 -26 -29 -47 -10
-47 18 0 68 51 68 70 0 19 -50 70 -68 70 -7 0 -12 -5 -12 -12z"/>
<path d="M540 465 c0 -13 25 -15 165 -15 140 0 165 2 165 15 0 13 -25 15 -165
15 -140 0 -165 -2 -165 -15z"/>
<path d="M547 404 c-19 -19 2 -24 109 -24 88 0 115 3 112 13 -5 13 -208 23
-221 11z"/>
<path d="M543 318 c3 -10 40 -13 142 -13 102 0 139 3 143 13 3 9 -30 12 -143
12 -113 0 -146 -3 -142 -12z"/>
<path d="M540 245 c0 -13 25 -15 165 -15 140 0 165 2 165 15 0 13 -25 15 -165
15 -140 0 -165 -2 -165 -15z"/>
<path d="M540 175 c0 -13 21 -15 130 -15 109 0 130 2 130 15 0 13 -21 15 -130
15 -109 0 -130 -2 -130 -15z"/>
</g>
</svg>
