<?xml version="1.0" standalone="no"?>
<!DOCTYPE svg PUBLIC "-//W3C//DTD SVG 20010904//EN"
 "http://www.w3.org/TR/2001/REC-SVG-20010904/DTD/svg10.dtd">
<svg version="1.0" xmlns="http://www.w3.org/2000/svg"
 width="87.000000pt" height="88.000000pt" viewBox="0 0 87.000000 88.000000"
 preserveAspectRatio="xMidYMid meet">

<g transform="translate(0.000000,88.000000) scale(0.100000,-0.100000)"
fill="#000000" stroke="none">
<path d="M176 865 c-30 -30 -12 -65 32 -65 14 0 40 -9 58 -21 26 -16 34 -27
34 -50 0 -27 -3 -29 -38 -29 -58 0 -82 -22 -82 -76 0 -42 -1 -44 -29 -44 -29
0 -30 2 -33 53 -3 45 -6 52 -25 55 -13 2 -23 8 -23 13 0 6 -15 9 -32 7 -26 -2
-34 -8 -36 -26 -7 -45 41 -70 69 -35 12 14 15 10 19 -38 l5 -54 40 -5 c35 -4
40 -8 40 -30 0 -22 -4 -25 -39 -25 -33 0 -42 5 -56 30 -23 41 -67 47 -76 10
-10 -39 11 -53 96 -62 71 -8 75 -9 75 -33 0 -22 -5 -25 -40 -28 -22 -1 -47 -5
-55 -9 -8 -3 -24 -5 -36 -4 -28 3 -48 -23 -40 -54 5 -19 13 -25 34 -25 22 0
31 7 43 33 12 28 18 32 54 32 36 0 40 -2 40 -25 0 -22 -5 -25 -38 -28 -32 -3
-42 -9 -59 -38 -11 -18 -32 -40 -46 -47 -20 -9 -27 -20 -27 -42 0 -26 4 -30
32 -33 27 -3 33 1 38 21 4 13 5 27 4 33 -2 5 5 24 14 41 15 28 23 33 52 33 35
0 35 0 35 -44 0 -54 24 -76 82 -76 34 0 38 -3 38 -25 0 -22 -4 -25 -39 -25
-50 0 -71 -8 -71 -28 0 -8 -7 -23 -16 -33 -31 -34 16 -88 51 -59 17 14 20 56
5 65 -23 14 -7 24 43 27 l52 3 3 38 c3 32 7 37 28 37 21 0 24 -5 24 -34 0 -47
-9 -66 -30 -66 -43 0 -50 -62 -9 -75 27 -9 49 12 49 46 0 15 4 31 10 34 5 3
10 26 10 51 0 40 2 44 25 44 23 0 25 -4 25 -44 0 -25 5 -48 10 -51 6 -3 10
-19 10 -34 0 -34 22 -55 49 -46 41 13 34 75 -9 75 -21 0 -30 19 -30 66 0 30 3
34 25 34 22 0 25 -4 25 -37 0 -34 5 -41 45 -66 25 -16 45 -35 45 -42 0 -39 63
-42 75 -4 9 27 -11 49 -44 49 -14 0 -41 9 -58 20 -26 15 -33 27 -33 50 0 28 2
30 38 30 58 0 82 22 82 76 0 42 1 44 29 44 29 0 30 -2 33 -52 3 -46 6 -53 26
-56 12 -2 22 -8 22 -13 0 -5 13 -9 30 -9 23 0 31 5 36 25 12 46 -38 74 -67 38
-12 -14 -15 -10 -19 38 l-5 54 -43 3 c-40 3 -43 5 -40 30 3 24 7 27 43 27 36
0 42 -4 54 -32 12 -26 21 -33 43 -33 21 0 29 6 34 25 8 33 -13 58 -43 52 -13
-2 -26 0 -29 4 -3 5 -28 9 -55 9 -49 0 -50 1 -47 28 3 26 6 27 78 35 41 5 80
13 87 19 29 23 7 68 -32 68 -15 0 -26 -11 -36 -32 -12 -29 -18 -33 -54 -33
-36 0 -40 3 -43 28 -3 25 -1 27 37 27 37 0 43 4 66 40 14 22 31 40 39 40 22 0
39 28 32 55 -9 35 -63 36 -71 2 -4 -13 -5 -27 -3 -33 1 -5 -6 -24 -17 -41 -15
-27 -26 -33 -52 -33 -32 0 -33 1 -33 44 0 54 -24 76 -82 76 -34 0 -38 3 -38
24 0 23 4 25 52 28 44 2 53 6 56 23 2 11 11 28 19 37 30 34 -18 86 -52 58 -17
-14 -20 -56 -5 -65 23 -14 7 -24 -42 -27 l-53 -3 -3 -37 c-3 -33 -7 -38 -28
-38 -23 0 -25 3 -22 42 2 33 8 45 26 54 36 18 45 30 37 52 -8 26 -41 38 -60
22 -8 -7 -15 -25 -15 -41 0 -15 -4 -31 -10 -34 -5 -3 -10 -26 -10 -51 0 -40
-2 -44 -25 -44 -23 0 -25 4 -25 44 0 25 -4 48 -10 51 -5 3 -10 19 -10 34 0 16
-7 34 -15 41 -19 16 -52 4 -60 -22 -8 -22 1 -34 37 -52 18 -9 24 -21 26 -54 3
-39 1 -42 -22 -42 -21 0 -25 5 -28 37 -2 30 -10 42 -41 63 -21 14 -43 37 -50
50 -15 31 -39 36 -61 15z m35 -28 c-1 -12 -15 -9 -19 4 -3 6 1 10 8 8 6 -3 11
-8 11 -12z m150 0 c-1 -12 -15 -9 -19 4 -3 6 1 10 8 8 6 -3 11 -8 11 -12z
m169 5 c0 -13 -12 -22 -22 -16 -10 6 -1 24 13 24 5 0 9 -4 9 -8z m150 0 c0
-13 -12 -22 -22 -16 -10 6 -1 24 13 24 5 0 9 -4 9 -8z m-630 -172 c0 -5 -4
-10 -10 -10 -5 0 -10 5 -10 10 0 6 5 10 10 10 6 0 10 -4 10 -10z m790 0 c0 -5
-4 -10 -10 -10 -5 0 -10 5 -10 10 0 6 5 10 10 10 6 0 10 -4 10 -10z m-180 -19
c13 -26 13 -396 0 -422 -10 -18 -23 -19 -225 -19 -202 0 -215 1 -225 19 -13
26 -13 396 0 422 10 18 23 19 225 19 202 0 215 -1 225 -19z m-610 -131 c0 -5
-4 -10 -10 -10 -5 0 -10 5 -10 10 0 6 5 10 10 10 6 0 10 -4 10 -10z m790 0 c0
-5 -4 -10 -10 -10 -5 0 -10 5 -10 10 0 6 5 10 10 10 6 0 10 -4 10 -10z m-790
-160 c0 -5 -4 -10 -10 -10 -5 0 -10 5 -10 10 0 6 5 10 10 10 6 0 10 -4 10 -10z
m790 0 c0 -5 -4 -10 -10 -10 -5 0 -10 5 -10 10 0 6 5 10 10 10 6 0 10 -4 10
-10z m-790 -150 c0 -5 -4 -10 -10 -10 -5 0 -10 5 -10 10 0 6 5 10 10 10 6 0
10 -4 10 -10z m790 0 c0 -5 -4 -10 -10 -10 -5 0 -10 5 -10 10 0 6 5 10 10 10
6 0 10 -4 10 -10z m-629 -173 c-13 -13 -26 -3 -16 12 3 6 11 8 17 5 6 -4 6
-10 -1 -17z m150 0 c-13 -13 -26 -3 -16 12 3 6 11 8 17 5 6 -4 6 -10 -1 -17z
m166 -3 c-9 -9 -28 6 -21 18 4 6 10 6 17 -1 6 -6 8 -13 4 -17z m150 0 c-9 -9
-28 6 -21 18 4 6 10 6 17 -1 6 -6 8 -13 4 -17z"/>
<path d="M230 440 l0 -200 205 0 205 0 0 200 0 200 -205 0 -205 0 0 -200z
m380 0 l0 -180 -175 0 -175 0 0 180 0 180 175 0 175 0 0 -180z"/>
<path d="M393 570 c-3 -11 -17 -23 -32 -26 -46 -10 -51 -13 -63 -40 -10 -22
-10 -28 0 -32 16 -5 16 -59 0 -65 -10 -3 -8 -13 6 -41 13 -24 25 -35 34 -31
23 9 49 -4 55 -25 7 -29 77 -29 84 0 5 20 36 35 52 26 11 -7 51 41 51 60 0 8
-4 14 -10 14 -5 0 -10 14 -10 30 0 17 5 30 10 30 16 0 12 19 -11 51 -11 16
-25 27 -30 23 -16 -9 -47 6 -52 26 -7 29 -77 29 -84 0z m57 -23 c0 -13 57 -43
75 -39 6 1 10 -27 10 -68 0 -41 -4 -69 -10 -68 -18 4 -75 -26 -75 -39 0 -7 -7
-13 -15 -13 -8 0 -15 6 -15 13 0 13 -57 43 -75 39 -6 -1 -10 27 -10 68 0 41 4
69 10 68 18 -4 75 26 75 39 0 7 7 13 15 13 8 0 15 -6 15 -13z"/>
<path d="M388 465 c-18 -41 3 -75 47 -75 28 0 38 5 47 25 18 41 -3 75 -47 75
-28 0 -38 -5 -47 -25z m60 -4 c19 -11 11 -45 -11 -49 -19 -4 -32 20 -23 43 6
17 15 19 34 6z"/>
</g>
</svg>
